<svg width="4510" height="4706" viewBox="0 0 4510 4706" fill="none" xmlns="http://www.w3.org/2000/svg">
<path d="M1137.82 775.613L343.786 0C265.819 45.1415 92.6504 212.37 23.7112 520.153C-45.2279 827.936 52.4359 1114.17 109.885 1218.82L343.786 997.216C662.834 1313.21 1369.87 2022.13 1645.63 2329.92C1921.38 2637.7 2166.77 3151.7 2255 3370.22C2242.69 3184.53 2190.99 2693.1 2082.65 2212.96C1974.32 1732.82 1407.62 1054.67 1137.82 775.613Z" fill="white"/>
<path d="M2255 4622.9C2242.69 4285.36 2175.6 3521.04 2005.71 3164.01C1835.83 2806.98 1694.87 2594.61 1645.63 2533.05L1402.49 2246.81C1088.57 1910.31 437.346 1224.36 343.786 1172.65C278.129 1228.05 132.66 1396.1 76.0311 1625.09C19.4025 1854.08 9.34888 2059.07 11.4006 2132.94C20.6336 2243.74 80.9553 2512.12 248.379 2699.26C415.803 2886.39 1655.89 4115.06 2255 4706V4622.9Z" fill="white"/>
<path d="M3372.18 775.613L4166.21 0C4244.18 45.1415 4417.35 212.37 4486.29 520.153C4555.23 827.936 4457.56 1114.17 4400.11 1218.82L4166.21 997.216C3847.17 1313.21 3140.13 2022.13 2864.37 2329.92C2588.62 2637.7 2343.23 3151.7 2255 3370.22C2267.31 3184.53 2319.01 2693.1 2427.35 2212.96C2535.68 1732.82 3102.38 1054.67 3372.18 775.613Z" fill="white"/>
<path d="M2504.29 3164.01C2334.4 3521.04 2267.31 4285.36 2255 4622.9V4706C2854.11 4115.06 4094.2 2886.39 4261.62 2699.26C4429.04 2512.12 4489.37 2243.74 4498.6 2132.94C4500.65 2059.07 4490.6 1854.08 4433.97 1625.09C4377.34 1396.1 4231.87 1228.05 4166.21 1172.65C4072.65 1224.36 3421.43 1910.31 3107.51 2246.81L2864.37 2533.05C2815.13 2594.61 2674.17 2806.98 2504.29 3164.01Z" fill="white"/>
</svg>
